<?xml version="1.0" encoding="UTF-8"?>
<svg id="Layer_1" data-name="Layer 1" xmlns="http://www.w3.org/2000/svg" viewBox="0 0 1080 263.62">
  <defs>
    <style>
      .cls-1 {
        fill: #2900ff;
      }
    </style>
  </defs>
  <g>
    <path class="cls-1" d="M16,149.96h40.17c18.28,0,27.34,9.67,27.34,26.13s-9.06,26.13-27.34,26.13h-27.79v53.47h-12.38v-105.72ZM56.93,191.35c10.57,0,14.2-5.89,14.2-15.26s-3.63-15.25-14.2-15.25h-28.54v30.51h28.54Z"/>
    <path class="cls-1" d="M154.8,202.82l14.95,52.86h-12.99l-14.65-51.65h-23.11v51.65h-12.38v-105.72h38.66c17.52,0,28.24,10.42,28.24,27.03,0,13.29-6.95,22.66-18.73,25.83ZM119.76,193.16h25.68c10.57,0,15.71-6.8,15.71-16.16s-5.14-16.16-15.71-16.16h-25.68v32.32Z"/>
    <path class="cls-1" d="M194.2,202.82c0-38.36,16.61-54.07,35.34-54.07s35.34,15.71,35.34,54.07-16.61,54.07-35.34,54.07-35.34-15.71-35.34-54.07ZM252.51,202.82c0-34.28-11.03-43.2-22.96-43.2s-22.96,8.91-22.96,43.2,11.03,43.2,22.96,43.2,22.96-8.91,22.96-43.2Z"/>
    <path class="cls-1" d="M286.33,149.96h26.13c21.6,0,39.27,15.55,39.27,52.86s-17.67,52.86-39.27,52.86h-26.13v-105.72ZM311.55,244.81c14.8,0,27.79-8.76,27.79-41.99s-12.99-41.99-27.79-41.99h-12.84v83.98h12.84Z"/>
    <path class="cls-1" d="M376.18,220.65v-70.68h12.38v72.04c0,16.46,7.7,24.01,22.2,24.01s22.2-7.55,22.2-24.01v-72.04h12.38v70.68c0,23.71-12.08,36.25-34.59,36.25s-34.59-12.54-34.59-36.25Z"/>
    <path class="cls-1" d="M464.83,202.82c0-38.36,20.54-54.07,38.36-54.07s30.06,12.99,30.51,36.7h-12.08c-.45-18.73-9.06-25.83-18.73-25.83-10.87,0-25.68,8.16-25.68,43.2s14.05,43.2,23.26,43.2c10.42,0,21.9-5.74,22.96-31.72h12.08c-1.21,28.85-17.07,42.59-35.04,42.59-19.03,0-35.65-15.71-35.65-54.07Z"/>
    <path class="cls-1" d="M626.88,160.84h-28.69v94.85h-12.38v-94.85h-28.7v-10.87h69.78v10.87Z"/>
    <path class="cls-1" d="M688.8,160.84v83.98h15.1v10.87h-42.59v-10.87h15.11v-83.98h-15.11v-10.87h42.59v10.87h-15.1Z"/>
    <path class="cls-1" d="M737.88,202.82c0-38.36,16.61-54.07,35.34-54.07s35.34,15.71,35.34,54.07-16.61,54.07-35.34,54.07-35.34-15.71-35.34-54.07ZM796.18,202.82c0-34.28-11.03-43.2-22.96-43.2s-22.96,8.91-22.96,43.2,11.03,43.2,22.96,43.2,22.96-8.91,22.96-43.2Z"/>
    <path class="cls-1" d="M831.81,149.96h18.73l33.53,92.73h.6l-.6-10.12v-82.62h11.78v105.72h-18.73l-33.53-92.74h-.6l.6,14.2v78.54h-11.78v-105.72Z"/>
    <path class="cls-1" d="M921.21,225.03h12.08c1.36,14.05,8.91,20.99,21.3,20.99,11.33,0,20.54-5.29,20.54-18.13,0-10.72-9.52-16.61-26.28-22.81-14.8-5.44-24.92-14.5-24.92-29.45,0-15.71,13.44-26.89,31.57-26.89s30.96,11.93,30.96,27.79h-12.08c0-9.67-7.7-16.92-19.63-16.92-10.42,0-18.73,6.19-18.73,15.55,0,7.7,5.59,15.11,20.99,20.99,21.15,8.16,30.51,15.41,30.51,31.72s-14.2,29-32.92,29c-20.69,0-32.47-12.08-33.38-31.87Z"/>
    <path class="cls-1" d="M1051.24,174.58c0,13.82-11.27,25.09-25.09,25.09s-25.09-11.27-25.09-25.09,11.27-25.09,25.09-25.09,25.09,11.27,25.09,25.09ZM1046.84,174.58c0-11.36-9.33-20.69-20.69-20.69s-20.69,9.33-20.69,20.69,9.33,20.69,20.69,20.69,20.69-9.33,20.69-20.69ZM1031.7,174.93l4.22,14h-4.49l-4.14-13.65h-5.72v13.65h-4.4v-28.7h11.89c5.1,0,7.92,2.99,7.92,7.48,0,3.61-1.85,6.34-5.28,7.22ZM1032.58,167.72c0-2.46-1.41-3.61-4.31-3.61h-6.69v7.22h6.69c2.91,0,4.31-1.14,4.31-3.61Z"/>
  </g>
  <g>
    <path class="cls-1" d="M39.57,33.45v16.92h36.4v19.33h-36.4v50.14h-21.45V14.11h61.93v19.33h-40.48Z"/>
    <path class="cls-1" d="M100.88,66.98c0-39.57,18.13-54.07,38.06-54.07s38.06,14.5,38.06,54.07-18.13,54.07-38.06,54.07-38.06-14.5-38.06-54.07ZM155.55,66.98c0-25.98-6.49-34.74-16.61-34.74s-16.61,8.76-16.61,34.74,6.49,34.74,16.61,34.74,16.61-8.76,16.61-34.74Z"/>
    <path class="cls-1" d="M243.9,119.84l-13.14-46.22h-14.8v46.22h-21.45V14.11h41.08c18.28,0,30.21,10.57,30.21,29.75,0,12.69-5.29,21.75-14.2,26.28l14.35,49.69h-22.05ZM215.95,54.89h17.82c6.8,0,10.57-3.62,10.57-11.02s-3.78-11.03-10.57-11.03h-17.82v22.05Z"/>
    <path class="cls-1" d="M280.89,14.11h28.39l9.21,55.43,1.36,11.63h.6l1.36-11.63,9.21-55.43h28.39v105.72h-18.73v-51.05l1.21-16.01h-.6l-12.99,67.06h-16.31l-12.99-67.06h-.6l1.21,16.01v51.05h-18.73V14.11Z"/>
    <path class="cls-1" d="M425.88,102.02h-30.21l-4.38,17.82h-21.75l27.49-105.72h27.49l27.49,105.72h-21.75l-4.38-17.82ZM421.65,84.8l-8.61-34.89-1.96-11.93h-.6l-1.96,11.93-8.61,34.89h21.75Z"/>
    <path class="cls-1" d="M523.89,33.45h-25.52v86.39h-21.45V33.45h-25.52V14.11h72.5v19.33Z"/>
  </g>
</svg>